<?xml version="1.0" encoding="UTF-8"?>
<svg xmlns="http://www.w3.org/2000/svg" version="1.1" viewBox="0 0 1944 211.49">
  <defs>
    <style>
      .cls-1 {
        fill: #e44f25;
      }

      .cls-2 {
        fill: #e83393;
      }

      .cls-3 {
        fill: #e9be1f;
      }

      .cls-4 {
        fill: #3b5e5b;
      }
    </style>
  </defs>
  <!-- Generator: Adobe Illustrator 28.6.0, SVG Export Plug-In . SVG Version: 1.2.0 Build 709)  -->
  <g>
    <g id="Layer_1">
      <path class="cls-4" d="M1942.73,136.28c-.17-34.63-.33-69.26-.5-103.9-26.67-.39-66.95-.57-115.49.83-287.47,8.3-356.98,54.67-528.85,64.54C990.13,115.41,830.58-12.5,465.72,4.17c-163.39,7.47-282.68,40.03-290.07,42.09C80.63,72.82,46.86,102.83,34.14,117.6"/>
      <path class="cls-3" d="M0,211.49h1944c-.51-41.55-1.02-83.1-1.53-124.65-112.39-9.07-278.9-18.43-474.42-13.05-253.76,6.99-255.88,31.19-450.54,36.65C610.47,121.88,366.37,24.22,55.95,57.65,30.57,60.38,11.23,63.29,0,65.1c0,48.8,0,97.59,0,146.39Z"/>
      <path class="cls-2" d="M1943.36,211.49H.64v-56.71c23.65,1.08,228.98,10.28,357.73,7.23,53.6-1.27,86.75-4.49,102.45-6.21,39.93-4.37,68.26-10.07,85.17-13.98,165.96-43.01,303.42-51.93,396.23-52.49,190.96-1.16,284.37,32.49,549.28,53.11,183.71,14.3,346.68,14.31,451.87,12.34v56.71Z"/>
      <path class="cls-1" d="M1944,211.49H0v-25.56c107.01-18.85,278.36-43.3,499.09-49.08,530.62-13.89,880.56,92.32,1213.36,51.56,65.86-8.07,156.87-25.05,230.28-65.85.42,29.64.85,59.28,1.27,88.93Z"/>
      <path class="cls-2" d="M1069.37-40.48"/>
    </g>
  </g>
</svg>