<svg width="144" height="254" viewBox="0 0 144 254" fill="none" xmlns="http://www.w3.org/2000/svg">
<rect x="63" y="127" width="57" height="30" fill="#FFDBE1"/>
<rect x="42" y="19" width="42" height="24" fill="#FFA3B1"/>
<rect x="60" y="43" width="19" height="66" fill="#FFA3B1"/>
<rect x="54" y="109" width="42" height="18" fill="#FFA3B1"/>
<rect x="42" y="121" width="24" height="24" fill="#FFA3B1"/>
<rect x="66" y="163" width="78" height="6" fill="#FFA3B1"/>
<rect x="60" y="157" width="78" height="6" fill="#FFA3B1"/>
<rect x="48" y="151" width="31" height="6" fill="#FFA3B1"/>
<rect x="120" y="145" width="12" height="12" fill="#FFA3B1"/>
<rect x="114" y="139" width="12" height="12" fill="#FFA3B1"/>
<rect x="108" y="127" width="12" height="18" fill="#FFA3B1"/>
<rect x="96" y="121" width="18" height="18" fill="#FFA3B1"/>
<rect x="84" y="115" width="24" height="18" fill="#FFA3B1"/>
<rect x="84" y="169" width="6" height="19" fill="#FFA3B1"/>
<rect x="78" y="235" width="6" height="6" fill="#E5AA7A"/>
<rect x="66" y="241" width="24" height="6" fill="#E5AA7A"/>
<rect x="102" y="169" width="6" height="25" fill="#FFA3B1"/>
<rect x="96" y="157" width="6" height="19" fill="#FFA3B1"/>
<rect x="66" y="188" width="42" height="6" fill="#FFA3B1"/>
<rect x="36" y="176" width="6" height="6" fill="#E5AA7A"/>
<rect x="30" y="182" width="18" height="6" fill="#E5AA7A"/>
<rect x="24" y="188" width="18" height="6" fill="#E5AA7A"/>
<rect x="24" y="194" width="6" height="6" fill="#E5AA7A"/>
<rect x="60" y="182" width="12" height="6" fill="#FFA3B1"/>
<rect x="48" y="182" width="12" height="6" fill="#FFDBE1"/>
<rect x="42" y="176" width="12" height="6" fill="#FFDBE1"/>
<rect x="108" y="166" width="6" height="3" fill="#FFA3B1"/>
<rect x="60" y="247" width="30" height="7" fill="#E5AA7A"/>
<rect x="78" y="181" width="6" height="30" fill="#FFA3B1"/>
<rect x="78" y="211" width="6" height="24" fill="#FFDBE1"/>
<rect x="84" y="223" width="6" height="18" fill="#FFDBE1"/>
<rect x="66" y="241" width="24" height="6" fill="#E5AA7A"/>
<rect x="78" y="235" width="6" height="6" fill="#E5AA7A"/>
<rect x="48" y="115" width="24" height="18" fill="#FFA3B1"/>
<rect x="48" y="133" width="18" height="24" fill="#FFA3B1"/>
<rect x="54" y="40" width="25" height="10" fill="#FFA3B1"/>
<rect x="24" y="13" width="13" height="18" fill="#E5AA7A"/>
<rect x="30" y="13" width="7" height="24" fill="#E5AA7A"/>
<rect x="37" y="13" width="42" height="24" fill="#FFA3B1"/>
<rect x="54" y="19" width="12" height="6" fill="black"/>
<rect x="54" y="19" width="12" height="6" fill="black"/>
<rect x="18" y="13" width="6" height="18" fill="black"/>
<rect x="18" y="13" width="6" height="18" fill="black"/>
<rect x="79" y="5" width="6" height="14" fill="black"/>
<rect x="79" y="5" width="6" height="14" fill="#67ECF1"/>
<rect x="84" y="12" width="6" height="14" fill="black"/>
<rect x="84" y="12" width="6" height="14" fill="#67ECF1"/>
<rect x="90" y="6" width="6" height="6" fill="black"/>
<rect x="90" y="6" width="6" height="6" fill="#67ECF1"/>
<rect x="90" y="6" width="6" height="6" fill="black"/>
<rect x="90" y="6" width="6" height="6" fill="#67ECF1"/>
<rect x="96" y="12" width="6" height="6" fill="black"/>
<rect x="96" y="12" width="6" height="6" fill="#67ECF1"/>
<rect x="73" width="6" height="6" fill="black"/>
<rect x="73" width="6" height="6" fill="#67ECF1"/>
<rect x="90" y="26" width="6" height="6" fill="black"/>
<rect x="90" y="26" width="6" height="6" fill="#67ECF1"/>
<rect y="25" width="6" height="18" fill="black"/>
<rect y="25" width="6" height="18" fill="black"/>
<rect x="6" y="19" width="12" height="18" fill="black"/>
<rect x="6" y="19" width="12" height="18" fill="black"/>
<rect x="66" y="19" width="6" height="6" fill="black"/>
<rect x="66" y="19" width="6" height="6" fill="white"/>
</svg>
