<svg width="321" height="308" viewBox="0 0 321 308" fill="none" xmlns="http://www.w3.org/2000/svg">
<path d="M227.646 27.4361C240.091 51.199 220.103 88.7293 208.554 104.524C224.959 99.432 243.188 90.5584 262.837 100.312C271.323 104.524 290.415 114.425 309.671 149.079C332.159 189.55 316.27 215.795 304.014 224.753C258.759 254.739 221.517 223.103 208.554 203.536C217.746 284.16 207.405 295.861 199.361 301.134C189.651 307.499 181.683 308.913 169.662 307.499C157.641 306.084 141.921 296.214 135.014 274.259C132.422 266.021 125.114 227.346 122.993 208.487C50.5845 240.171 23.5714 237.514 23.29 215.559C22.7243 171.428 57.9385 150.494 75.6163 145.543C36.5837 146.109 13.1547 125.034 6.31925 114.425C-4.59726 97.4831 -4.42887 65.485 31.7753 56.4325C67.9795 47.38 102.958 75.7634 115.922 91.0867C102.487 26.7289 146.165 5.15882 161.177 1.26866C171.973 -1.52898 212.089 -2.26749 227.646 27.4361Z" fill="#EABE07"/>
</svg>
