<svg width="111" height="121" viewBox="0 0 111 121" fill="none" xmlns="http://www.w3.org/2000/svg">
<path d="M7.57871 42.0501C15.5047 36.4749 29.8873 41.869 36.0878 45.2629C33.4924 39.6265 29.4567 33.5143 32.0261 26.0177C33.1357 22.7804 35.7842 15.4764 47.2909 6.94947C60.729 -3.00868 70.8764 1.44788 74.6615 5.4166C87.5304 20.2157 77.9504 35.0426 71.5517 40.6062C99.9971 33.5218 104.674 36.6754 106.941 39.3086C109.678 42.4871 110.559 45.2745 110.618 49.6466C110.677 54.0188 107.881 60.1137 100.342 63.6203C97.513 64.936 84.0042 69.3725 77.349 71.0193C92.1029 95.4642 92.422 105.265 84.5713 106.398C68.7911 108.676 59.6369 97.0478 57.0322 90.9488C59.0707 104.903 52.6238 114.286 49.1456 117.233C43.5907 121.94 32.1218 123.384 27.1766 110.843C22.2315 98.3009 30.7527 84.4375 35.6315 79.0735C13.2118 86.9125 3.43166 72.2825 1.33223 67.0884C-0.17759 63.3529 -2.32881 49.0191 7.57871 42.0501Z" fill="#F0249C"/>
</svg>
