<svg width="192" height="207" viewBox="0 0 192 207" fill="none" xmlns="http://www.w3.org/2000/svg">
<path d="M0.398109 141.653C2.98203 123.448 29.1255 110.56 41.8742 106.392C30.7065 102.661 17.0099 100.304 9.97819 87.0119C6.94154 81.2719 0.278852 68.1209 3.43116 41.1287C7.11261 9.60571 26.458 1.35868 36.8642 1.27834C74.0506 2.70141 82.1152 35.2121 81.4992 51.2896C108.649 2.74141 119.087 0.368272 125.674 0.652944C133.625 0.996581 138.625 3.39815 144.749 8.99617C150.873 14.5942 155.672 26.3784 150.729 41.3614C148.875 46.9834 137.464 71.4315 131.097 82.7762C184.074 94.1214 198.045 106.41 189.415 118.742C172.068 143.528 144.093 141.086 132.273 136.766C154.222 152.072 158.827 173.178 158.385 181.817C157.68 195.615 144.781 213.355 121.009 203.904C97.238 194.453 89.1307 164.658 88.0485 150.942C69.7692 192.136 36.829 186.66 26.9173 182.817C19.7892 180.053 -2.83181 164.41 0.398109 141.653Z" fill="#E64C0C"/>
</svg>
