<svg xmlns="http://www.w3.org/2000/svg" version="1.1" xmlns:xlink="http://www.w3.org/1999/xlink" xmlns:svgjs="http://svgjs.dev/svgjs" viewBox="0 0 800 800" opacity="1"><g stroke-width="11" stroke="hsl(180, 69%, 30%)" fill="none" stroke-linecap="round" transform="matrix(1,0,0,1,-5,279.95129776000977)"><path d="M10,10C26.435185185185183,15.625,53.93518518518518,42.416666666666664,88.88888888888889,37C123.84259259259258,31.583333333333336,140.74074074074073,-18.291666666666668,177.77777777777777,-16C214.8148148148148,-13.708333333333334,229.6296296296296,48.416666666666664,266.66666666666663,48C303.7037037037037,47.583333333333336,318.5185185185185,-15.708333333333334,355.55555555555554,-18C392.5925925925926,-20.291666666666668,407.40740740740745,37.833333333333336,444.44444444444446,37C481.48148148148147,36.166666666666664,496.29629629629625,-26.375,533.3333333333333,-22C570.3703703703703,-17.625,585.1851851851851,53,622.2222222222222,58C659.2592592592592,63,674.074074074074,7.208333333333334,711.1111111111111,2C748.1481481481482,-3.208333333333334,781.4814814814815,26.541666666666664,800,33"></path><path d="M10,10C26.435185185185183,15.625,53.93518518518518,42.416666666666664,88.88888888888889,37C123.84259259259258,31.583333333333336,140.74074074074073,-18.291666666666668,177.77777777777777,-16C214.8148148148148,-13.708333333333334,229.6296296296296,48.416666666666664,266.66666666666663,48C303.7037037037037,47.583333333333336,318.5185185185185,-15.708333333333334,355.55555555555554,-18C392.5925925925926,-20.291666666666668,407.40740740740745,37.833333333333336,444.44444444444446,37C481.48148148148147,36.166666666666664,496.29629629629625,-26.375,533.3333333333333,-22C570.3703703703703,-17.625,585.1851851851851,53,622.2222222222222,58C659.2592592592592,63,674.074074074074,7.208333333333334,711.1111111111111,2C748.1481481481482,-3.208333333333334,781.4814814814815,26.541666666666664,800,33" transform="matrix(1,0,0,1,0,204)"></path><path d="M10,10C26.435185185185183,15.625,53.93518518518518,42.416666666666664,88.88888888888889,37C123.84259259259258,31.583333333333336,140.74074074074073,-18.291666666666668,177.77777777777777,-16C214.8148148148148,-13.708333333333334,229.6296296296296,48.416666666666664,266.66666666666663,48C303.7037037037037,47.583333333333336,318.5185185185185,-15.708333333333334,355.55555555555554,-18C392.5925925925926,-20.291666666666668,407.40740740740745,37.833333333333336,444.44444444444446,37C481.48148148148147,36.166666666666664,496.29629629629625,-26.375,533.3333333333333,-22C570.3703703703703,-17.625,585.1851851851851,53,622.2222222222222,58C659.2592592592592,63,674.074074074074,7.208333333333334,711.1111111111111,2C748.1481481481482,-3.208333333333334,781.4814814814815,26.541666666666664,800,33" transform="matrix(1,0,0,1,0,170)"></path><path d="M10,10C26.435185185185183,15.625,53.93518518518518,42.416666666666664,88.88888888888889,37C123.84259259259258,31.583333333333336,140.74074074074073,-18.291666666666668,177.77777777777777,-16C214.8148148148148,-13.708333333333334,229.6296296296296,48.416666666666664,266.66666666666663,48C303.7037037037037,47.583333333333336,318.5185185185185,-15.708333333333334,355.55555555555554,-18C392.5925925925926,-20.291666666666668,407.40740740740745,37.833333333333336,444.44444444444446,37C481.48148148148147,36.166666666666664,496.29629629629625,-26.375,533.3333333333333,-22C570.3703703703703,-17.625,585.1851851851851,53,622.2222222222222,58C659.2592592592592,63,674.074074074074,7.208333333333334,711.1111111111111,2C748.1481481481482,-3.208333333333334,781.4814814814815,26.541666666666664,800,33" transform="matrix(1,0,0,1,0,136)"></path><path d="M10,10C26.435185185185183,15.625,53.93518518518518,42.416666666666664,88.88888888888889,37C123.84259259259258,31.583333333333336,140.74074074074073,-18.291666666666668,177.77777777777777,-16C214.8148148148148,-13.708333333333334,229.6296296296296,48.416666666666664,266.66666666666663,48C303.7037037037037,47.583333333333336,318.5185185185185,-15.708333333333334,355.55555555555554,-18C392.5925925925926,-20.291666666666668,407.40740740740745,37.833333333333336,444.44444444444446,37C481.48148148148147,36.166666666666664,496.29629629629625,-26.375,533.3333333333333,-22C570.3703703703703,-17.625,585.1851851851851,53,622.2222222222222,58C659.2592592592592,63,674.074074074074,7.208333333333334,711.1111111111111,2C748.1481481481482,-3.208333333333334,781.4814814814815,26.541666666666664,800,33" transform="matrix(1,0,0,1,0,102)"></path><path d="M10,10C26.435185185185183,15.625,53.93518518518518,42.416666666666664,88.88888888888889,37C123.84259259259258,31.583333333333336,140.74074074074073,-18.291666666666668,177.77777777777777,-16C214.8148148148148,-13.708333333333334,229.6296296296296,48.416666666666664,266.66666666666663,48C303.7037037037037,47.583333333333336,318.5185185185185,-15.708333333333334,355.55555555555554,-18C392.5925925925926,-20.291666666666668,407.40740740740745,37.833333333333336,444.44444444444446,37C481.48148148148147,36.166666666666664,496.29629629629625,-26.375,533.3333333333333,-22C570.3703703703703,-17.625,585.1851851851851,53,622.2222222222222,58C659.2592592592592,63,674.074074074074,7.208333333333334,711.1111111111111,2C748.1481481481482,-3.208333333333334,781.4814814814815,26.541666666666664,800,33" transform="matrix(1,0,0,1,0,68)"></path><path d="M10,10C26.435185185185183,15.625,53.93518518518518,42.416666666666664,88.88888888888889,37C123.84259259259258,31.583333333333336,140.74074074074073,-18.291666666666668,177.77777777777777,-16C214.8148148148148,-13.708333333333334,229.6296296296296,48.416666666666664,266.66666666666663,48C303.7037037037037,47.583333333333336,318.5185185185185,-15.708333333333334,355.55555555555554,-18C392.5925925925926,-20.291666666666668,407.40740740740745,37.833333333333336,444.44444444444446,37C481.48148148148147,36.166666666666664,496.29629629629625,-26.375,533.3333333333333,-22C570.3703703703703,-17.625,585.1851851851851,53,622.2222222222222,58C659.2592592592592,63,674.074074074074,7.208333333333334,711.1111111111111,2C748.1481481481482,-3.208333333333334,781.4814814814815,26.541666666666664,800,33" transform="matrix(1,0,0,1,0,34)"></path></g></svg>