<svg width="90" height="86" viewBox="0 0 118 114" fill="none" xmlns="http://www.w3.org/2000/svg">
<rect x="35" y="12" width="22" height="20" fill="#FF9A88"/>
<rect x="44" y="8" width="26" height="36" fill="#FF9A88"/>
<rect x="44" width="27" height="16" fill="#FF9A88"/>
<rect x="60" y="6" width="25" height="48" fill="#FF9A88"/>
<rect x="80" y="12" width="16" height="83" fill="#FF9A88"/>
<rect x="100" y="56" width="14" height="21" fill="#FF9A88"/>
<rect x="94" y="63" width="16" height="28" fill="#FF9A88"/>
<rect x="86" y="71" width="16" height="28" fill="#FF9A88"/>
<rect x="47" y="77" width="18" height="35" fill="#FF9A88"/>
<rect x="40" y="82" width="20" height="26" fill="#FF9A88"/>
<rect x="4" y="87" width="28" height="13" fill="#FF9A88"/>
<rect x="22" y="87" width="10" height="9" fill="#FF9A88"/>
<rect x="27" y="91" width="10" height="9" fill="#FF9A88"/>
<rect x="34" y="88" width="10" height="17" fill="#FF9A88"/>
<rect x="8" y="83" width="18" height="9" fill="#FF9A88"/>
<rect y="99" width="18" height="9" fill="#FF9A88"/>
<rect x="4" y="105" width="18" height="9" fill="#FF9A88"/>
<rect x="14" y="99" width="18" height="9" fill="#FF9A88"/>
<rect x="88" y="20" width="16" height="34" fill="#FF9A88"/>
<rect x="70" y="49" width="18" height="34" fill="#FF9A88"/>
<rect x="63" y="71" width="25" height="34" fill="#FF9A88"/>
<rect x="93" y="32" width="25" height="34" fill="#FF9A88"/>
</svg>
